<?xml version="1.0" standalone="no"?>
<!DOCTYPE svg PUBLIC "-//W3C//DTD SVG 20010904//EN"
 "http://www.w3.org/TR/2001/REC-SVG-20010904/DTD/svg10.dtd">
<svg version="1.0" xmlns="http://www.w3.org/2000/svg"
 width="512.000000pt" height="512.000000pt" viewBox="0 0 512.000000 512.000000"
 preserveAspectRatio="xMidYMid meet">
<metadata>
Created by potrace 1.11, written by Peter Selinger 2001-2013
</metadata>
<g transform="translate(0.000000,512.000000) scale(0.100000,-0.100000)"
fill="#000000" stroke="none">
<path d="M2380 5114 c-218 -19 -486 -75 -670 -139 -130 -46 -339 -145 -468
-222 -231 -138 -485 -358 -663 -576 -648 -790 -759 -1893 -285 -2803 125 -239
258 -417 465 -624 213 -213 433 -370 691 -494 1154 -554 2531 -176 3240 891
368 554 506 1224 385 1876 -97 528 -348 996 -736 1372 -389 377 -867 614
-1404 696 -125 19 -448 32 -555 23z m-414 -984 c41 -11 116 -41 167 -67 75
-38 110 -65 188 -143 85 -84 102 -107 148 -200 28 -58 51 -110 51 -116 0 -7
-30 -17 -67 -24 -254 -43 -481 -159 -658 -334 -122 -122 -240 -313 -277 -450
-7 -25 -18 -46 -25 -46 -6 0 -49 -12 -93 -26 -94 -29 -93 -30 -189 60 -105 99
-189 245 -227 391 -25 100 -23 284 4 388 45 165 164 341 300 441 99 72 230
126 357 145 81 13 231 4 321 -19z m950 -625 c335 -58 619 -239 799 -510 99
-148 155 -305 176 -488 l11 -104 65 -7 c284 -29 513 -277 513 -556 0 -239
-148 -437 -400 -534 -55 -21 -60 -21 -1255 -24 -1068 -2 -1209 -1 -1279 13
-462 93 -718 582 -516 983 49 96 124 189 203 248 77 58 215 123 289 138 l58
11 21 65 c27 82 88 204 141 284 57 84 218 241 308 300 141 93 330 166 480 185
108 14 291 12 386 -4z"/>
</g>
</svg>
